<?xml version="1.0" encoding="UTF-8" standalone="no"?><!DOCTYPE svg PUBLIC "-//W3C//DTD SVG 1.1//EN" "http://www.w3.org/Graphics/SVG/1.1/DTD/svg11.dtd"><svg width="100%" height="100%" viewBox="0 0 2856 1500" version="1.1" xmlns="http://www.w3.org/2000/svg" xmlns:xlink="http://www.w3.org/1999/xlink" xml:space="preserve" xmlns:serif="http://www.serif.com/" style="fill-rule:evenodd;clip-rule:evenodd;stroke-linejoin:round;stroke-miterlimit:2;"><path d="M0,870.023c0,-0 27.678,-465.191 460.728,-465.191c433.05,0 469.659,388.106 469.659,465.191l0,602.697l-326.796,-1.603l-0,-601.094c-0,-0 -0,-141.969 -142.863,-141.969c-142.859,0 -142.859,141.969 -142.859,141.969l-0,602.697l-317.869,-0l0,-602.697" style="fill:#ff4454;fill-rule:nonzero;"/><path d="M2855.44,1250.39c-0,137.581 -111.531,249.113 -249.116,249.113c-137.578,-0 -249.112,-111.532 -249.112,-249.113c-0,-137.581 111.534,-249.116 249.112,-249.116c137.585,0 249.116,111.535 249.116,249.116" style="fill:#ff4454;fill-rule:nonzero;"/><path d="M1642.28,1166.22c-128.213,-0 -232.15,-103.938 -232.15,-232.15c-0,-128.213 103.937,-232.15 232.15,-232.15c128.209,-0 232.15,103.937 232.15,232.15c-0,128.212 -103.941,232.15 -232.15,232.15m-0,-765.741c-294.694,-0 -533.591,238.897 -533.591,533.591c0,294.693 238.897,533.587 533.591,533.587c294.693,0 533.587,-238.894 533.587,-533.588c0,-294.693 -238.894,-533.59 -533.587,-533.59" style="fill:#ff4454;fill-rule:nonzero;"/><rect x="1874.43" y="0" width="301.438" height="927.172" style="fill:#ff4454;"/></svg>